<?xml version="1.0" standalone="no"?>
<!DOCTYPE svg PUBLIC "-//W3C//DTD SVG 1.1//EN" "http://www.w3.org/Graphics/SVG/1.1/DTD/svg11.dtd" >
<svg xmlns="http://www.w3.org/2000/svg">
<metadata>Generated by IcoMoon</metadata>
<defs>
<font id="template-Icons" horiz-adv-x="1024">
<font-face units-per-em="1024" ascent="960" descent="-64" />
<missing-glyph horiz-adv-x="1024" />
<glyph unicode="&#x20;" horiz-adv-x="512" d="" />
<glyph unicode="&#xe600;" glyph-name="home" d="M998.099 512.427l-383.402 407.644c-23.888 24.613-58.495 39.929-95.195 39.929s-72.325-15.050-96.212-39.662l-0.331-0.233-391.69-404.325c-19.367-16.504-30.016-34.108-30.016-55.194 0-25.894 17.747-45.669 44.014-46.024l0.913-0.208h123.512v-409.52c0-37.638 30.382-68.835 68.021-68.835h563.577c37.638 0 67.647 31.197 67.647 68.835v409.52h107.874l-0.061 0.206c26.089 0.266 46.055 22.941 46.055 48.835-0.001 18.48-10.916 36.59-24.706 49.032zM407.3 290.011h224.652l0.001-294.1-224.24-0.411-0.414 294.511zM869.44 472.869h-59.018v-468.034c0-5.313-3.82-10.32-9.133-10.32h-110.822l-0.001 319.475c0 18.82-15.258 34.537-34.076 34.537h-272.325c-18.818 0-35.315-14.845-35.315-33.665l0.449-320.347h-111.487c-5.313 0-9.507 5.006-9.507 10.32v468.034h-156.581l1.671 1.962 391.984 404.726c13.11 13.508 33.887 21.915 54.221 21.915 19.383 0 38.81-7.898 52.256-21.201l0.249-0.496 382.527-406.905h-85.091z" />
<glyph unicode="&#xe601;" glyph-name="back" d="M720.665 789.396l-341.359-341.359 341.359-341.359c13.935-13.935 13.935-36.533 0-50.47-13.941-13.941-36.538-13.941-50.473 0l-366.554 366.548c-6.979 6.979-10.459 16.132-10.448 25.281-0.010 9.149 3.468 18.302 10.448 25.283l366.554 366.551c13.935 13.937 36.532 13.937 50.473 0 13.935-13.938 13.935-36.535 0-50.474z" />
<glyph unicode="&#xe602;" glyph-name="location" d="M511.315-63.5l-302.15 299.716c-80.783 80.135-125.273 186.697-125.273 300.057 0 113.358 44.49 219.92 125.273 300.055 80.722 80.072 188.028 124.17 302.153 124.17s221.43-44.096 302.15-124.169c80.785-80.135 125.276-186.697 125.276-300.055 0-113.36-44.491-219.922-125.276-300.057l-302.153-299.717zM511.318 901.939c-98.573 0-191.233-38.065-260.912-107.185-69.614-69.056-107.953-160.853-107.953-258.481s38.339-189.424 107.954-258.481l260.909-258.807 260.911 258.807c69.616 69.057 107.956 160.854 107.956 258.481 0 97.628-38.34 189.424-107.956 258.481-69.679 69.12-162.338 107.185-260.909 107.185zM511.315 426.104c-56.307 0-102.115 46.103-102.115 102.773 0 56.662 45.808 102.761 102.115 102.761s102.118-46.098 102.118-102.761c-0.001-56.67-45.811-102.773-102.118-102.773zM511.315 573.076c-24.016 0-43.554-19.828-43.554-44.2 0-24.379 19.538-44.21 43.554-44.21s43.557 19.833 43.557 44.21c0 24.373-19.541 44.2-43.557 44.2z" />
<glyph unicode="&#xe603;" glyph-name="jian" d="M514.635 489.994h31.987v-302.759h-31.987v302.759zM942.182 960.193h-859.094c-45.189 0-81.819-36.634-81.819-81.821v-859.095c0-45.186 36.631-81.816 81.819-81.816h859.092c45.186 0 81.819 36.63 81.819 81.816v859.095c0 45.186-36.633 81.821-81.818 81.821zM262.46 140.373h-101.911l10.414 326.562h101.911l-10.414-326.562zM190.303 513.055l-27.524 244.736h101.911l27.524-244.736h-101.911zM626.217 140.373h-191.921v396.487h191.921v-396.487zM628.448 582.979h-194.152v46.864h194.152v-46.864zM859.794 676.709h-122.74l13.39-385.33 24.548 2.975v335.489h84.802v-372.68l-107.862-11.902 2.232-58.023h105.63v-46.864h-192.664l-3.72 95.216-20.085-2.232v46.864l18.597 1.488-13.39 394.999h-241.761v-536.338h-91.497v582.457h331.769l-1.488 46.864h88.522l1.488-46.864h37.195v46.866h87.034v-92.985z" />
<glyph unicode="&#xe604;" glyph-name="song" d="M942.182 960h-859.094c-45.189 0-81.819-36.634-81.819-81.821v-859.095c0-45.186 36.631-81.816 81.819-81.816h859.092c45.186 0 81.819 36.63 81.819 81.816v859.095c0 45.186-36.633 81.821-81.818 81.821zM164.176 762.247h111.211v-69.692h-111.211v69.692zM861.095 135.020h-696.918v510.827h111.209v-464.118h585.709v-46.709zM861.095 645.847h-199.437v-115.659h199.436v-46.709h-183.126l133.452-186.092h49.674v-45.967h-138.642l-117.141 163.109-117.141-163.109h-137.901v45.967h49.674l133.452 186.092h-183.126v46.709h199.437v115.659h-199.437v46.709h63.76l-26.69 69.692h107.504l26.69-69.692h167.557l27.431 69.692h107.504l-26.69-69.692h63.76v-46.709z" />
<glyph unicode="&#xe605;" glyph-name="editer" d="M926.991 562.011c-15.519 0-28.1-12.837-28.1-28.687 0-56.139-0.181-484.817-0.181-484.817 0-24.801-31.587-55.457-55.88-55.457h-684.686c-29.63 0.001-55.744 23.295-55.744 55.608v798.034c0 24.804 30.985 56.257 55.28 56.257h547.948c12.959 2.926 22.907 13.926 22.907 27.958 0 16.040-12.933 29.063-28.64 29.063-0.159 0-0.648-0.059-0.648-0.061v0.092h-544.17c-60.738 0-109.729-50.27-109.729-112.282v-799.437c0-62.009 48.991-112.282 109.729-112.282h690.526c60.738 0 109.975 50.273 109.975 112.282 0 0-0.487 461.643-0.487 485.044 0 15.849-12.581 28.685-28.1 28.685zM987.673 898.864c0 15.654-12.689 28.343-28.343 28.343-9.138 0-17.246-4.343-22.429-11.059-0.404-0.323-0.796-0.669-1.169-1.042l-571.503-571.503c-0.129-0.129-0.24-0.269-0.363-0.402-6.518-5.193-10.708-13.183-10.708-22.165 0-15.654 12.689-28.343 28.343-28.343 7.989 0 15.193 3.318 20.344 8.635 0.926 0.571 1.807 1.243 2.61 2.047l571.503 571.5c0.862 0.863 1.573 1.815 2.166 2.817 5.844 5.19 9.548 12.74 9.548 21.172z" />
<glyph unicode="&#xe606;" glyph-name="zhe" d="M940.815 960.193h-859.094c-45.188 0-81.818-36.634-81.819-81.821v-859.095c0-45.186 36.631-81.816 81.819-81.816h859.094c45.186 0 81.819 36.63 81.819 81.816v859.095c0 45.186-36.633 81.821-81.819 81.821zM427.344 693.915h-65.356v-195.328l65.356 11.14v-48.274l-65.356-11.14v-314.9h-199.784v46.789h88.38v248.801l-88.38-14.854v49.017l88.38 14.854v213.895h-88.38v46.789h88.38v23.024h111.404v-23.024h65.356v-46.789zM860.333 531.266h-34.907v-397.338h-109.918v397.338h-141.853v-397.338h-109.176v606.777h283.707v23.024h112.146v-69.813h-286.678v-116.603h286.679v-46.046z" />
<glyph unicode="&#xe607;" glyph-name="pay-baidu" d="M869.168 460.567c0 0-70.279 230.217-297.337 164.437-5.402 0-5.402-5.477-10.811-5.477 102.719-21.928 183.808-120.589 183.808-235.701 0-131.55-102.716-241.175-232.466-241.175-129.742 0-232.46 109.625-232.46 241.175 0 54.812 16.22 98.664 43.248 137.032 81.092 120.589 200.028 180.888 297.337 213.775 86.5 32.886 162.181 38.368 189.216 43.852 5.404 126.066-108.126 109.625-135.156 109.625-329.776-87.701-470.336-16.444-508.176-5.481 16.217-131.555 156.777-169.923 156.777-169.923-10.811-10.958-21.627-16.443-27.028-27.405-86.5-65.773-145.968-175.402-145.968-301.473 0-208.29 162.186-372.727 362.209-372.727 200.028 0 362.214 169.918 362.214 372.727 0 27.407 0 54.812-5.408 76.74zM512.363 498.937l-108.12-115.111 108.12-115.106 108.126 115.106-108.126 115.111z" />
<glyph unicode="&#xe608;" glyph-name="pay-vip" d="M944.274 640.976c0 44.648-36.193 80.842-80.84 80.842s-80.842-36.194-80.842-80.842c0-36.438 24.111-67.236 57.246-77.334l-172.652-115.147-142.893 183.748c34.382 9.302 59.683 40.701 59.683 78.026 0 44.648-36.193 80.842-80.84 80.842s-80.842-36.194-80.842-80.842c0-38.758 27.282-71.13 63.685-79l-142.321-182.775-172.658 115.147c33.135 10.098 57.246 40.896 57.246 77.334 0 44.648-36.194 80.842-80.842 80.842s-80.842-36.194-80.842-80.842c0-42.097 32.18-76.872 73.28-80.687l65.303-435.579h600.542l65.306 435.58c41.102 3.814 73.28 38.59 73.28 80.687zM112.756 640.976c0 19.134 15.512 34.646 34.646 34.646s34.646-15.512 34.646-34.646c0-19.134-15.512-34.646-34.646-34.646s-34.646 15.512-34.646 34.646zM468.487 710.27c0 19.134 15.512 34.646 34.646 34.646s34.646-15.512 34.646-34.646c0-19.134-15.512-34.646-34.646-34.646s-34.646 15.512-34.646 34.646zM253.017 180.297l-10.203 68.754h525.205l-10.203-68.754h-504.798zM776.375 304.64h-541.917l-25.012 166.643 146.335-97.668 149.716 192.249 149.533-192.293 146.356 97.709-25.012-166.64zM863.434 606.329c-19.134 0-34.646 15.512-34.646 34.646s15.512 34.646 34.646 34.646c19.134 0 34.646-15.512 34.646-34.646s-15.512-34.646-34.646-34.646z" />
<glyph unicode="&#xe609;" glyph-name="pay-weixin" d="M383.981 813.533c-170.77 0-310.655-119.081-310.655-270.292 0-87.281 46.538-158.954 124.309-214.546l-31.068-95.605 108.598 55.713c38.858-7.867 70.037-15.96 108.818-15.96 9.747 0 19.415 0.494 28.998 1.265-6.068 21.248-9.585 43.501-9.585 66.594 0 138.844 116.549 251.524 264.114 251.524 10.069 0 20.031-0.756 29.915-1.883-26.881 128.048-160.701 223.19-313.445 223.19zM687.167 575.149c-147.807 0-264.221-103.567-264.221-230.627 0-127.283 116.414-230.631 264.221-230.631 30.937 0 62.139 7.98 93.21 15.945l85.209-47.733-23.365 79.421c62.357 47.86 108.818 111.321 108.818 182.999 0.001 127.056-124.283 230.625-263.872 230.625zM772.377 384.287c-15.36 0-30.856 15.743-30.856 31.8 0 15.835 15.496 31.783 30.856 31.783 23.284 0 38.883-15.948 38.883-31.783 0-16.056-15.6-31.8-38.883-31.8zM601.501 384.287c-15.467 0-31.071 15.743-31.071 31.8 0 15.835 15.604 31.783 31.071 31.783 23.498 0 38.886-15.948 38.886-31.783-0.001-16.056-15.388-31.8-38.886-31.8zM500.473 598.954c-23.281 0-46.646 15.964-46.646 39.782 0 23.915 23.365 39.658 46.646 39.658 23.394 0 38.887-15.743 38.887-39.658 0-23.818-15.493-39.782-38.887-39.782zM283.058 598.954c-23.281 0-46.779 15.964-46.779 39.782 0 23.915 23.498 39.658 46.779 39.658 23.284 0 38.78-15.743 38.78-39.658 0-23.818-15.498-39.782-38.78-39.782z" />
<glyph unicode="&#xe60a;" glyph-name="pay-card" d="M950.857 723.18c0 61.585-49.328 111.682-109.975 111.682h-657.772c-60.64 0-109.967-50.097-109.967-111.682v-551.109c0-61.588 49.328-111.663 109.967-111.663h657.772c60.647 0 109.975 50.077 109.975 111.663v551.109zM124.9 726.407c0 31.239 25.032 56.667 55.792 56.667h662.613c30.764 0 55.802-25.42 55.802-56.667v-97.537h-774.207v97.537zM899.1 168.844c0.006-31.247-25.032-56.643-55.796-56.643h-662.613c-30.758 0-55.796 25.397-55.796 56.643v279.11h774.205v-279.11zM409.247 298.255c0 25.699-20.711 46.741-45.998 46.741h-89.196c-25.306 0-46.020-21.042-46.020-46.741v-10.462c0-25.699 20.714-46.712 46.020-46.712h89.196c25.285 0 45.998 21.014 45.998 46.712v10.462z" />
<glyph unicode="&#xe60b;" glyph-name="pay-taobao" d="M114.327 308.357c7.27 36.372 47.281 83.649 124.106 83.649 88.348 0 167.336-22.544 262.276-68.782-66.594-86.787-148.577-138.518-233.634-138.518-138.202 0-160.019 87.281-152.747 123.651zM581.903 282.977c98.588-47.152 278.995-125.468 348.001-155.247l20.885-9.4v150.023c0 0-254.904 77.926-310.97 98.15 33.707 57.977 60.542 124.22 78.219 196.432h-192.755v65.461h236.392v40.006h-236.386v109.103h-90.922c-16.22 0-18.312-14.798-18.312-14.798v-94.305h-221.687v-40.006h221.687v-65.461h-181.709v-36.37h367.313c-13.429-46.042-31.318-89.297-52.625-128.571-82.934 27.3-129.453 46.248-231.047 55.836-192.749 18.183-237.15-87.536-244.054-152.288-10.524-98.655 76.761-179.117 207.565-179.117 130.8 0 217.575 60.21 300.405 160.55z" />
<glyph unicode="&#xe60c;" glyph-name="minus" d="M973.531 379.001h-921.6c-28.276 0-51.2 22.924-51.2 51.2v34.133c0 28.276 22.924 51.2 51.2 51.2h921.6c28.28 0 51.2-22.924 51.2-51.2v-34.133c0-28.276-22.92-51.2-51.2-51.2z" />
<glyph unicode="&#xe60d;" glyph-name="circle-plus" d="M512 960c-282.77 0-512-229.23-512-511.999 0-282.772 229.23-512.001 512-512.001s512 229.23 512 512.001c0 282.769-229.23 511.999-512 511.999zM704 441.599c0-10.603-8.597-19.199-19.2-19.199h-147.2v-147.2c0-10.603-8.597-19.199-19.2-19.199h-12.8c-10.604 0-19.2 8.596-19.2 19.199v147.2h-147.2c-10.604 0-19.2 8.597-19.2 19.199v12.801c0 10.604 8.596 19.2 19.2 19.2h147.2v147.2c0 10.603 8.596 19.201 19.2 19.201h12.8c10.603 0 19.2-8.597 19.2-19.201v-147.2h147.2c10.603 0 19.2-8.596 19.2-19.2v-12.801z" />
<glyph unicode="&#xe60e;" glyph-name="plus" d="M973.531 379.001h-392.533v-392.533c0-28.276-22.924-51.2-51.2-51.2h-34.134c-28.276 0-51.2 22.924-51.2 51.2v392.533h-392.533c-28.276 0-51.2 22.924-51.2 51.2v34.133c0 28.276 22.924 51.2 51.2 51.2h392.533v392.534c0 28.28 22.924 51.2 51.2 51.2h34.134c28.276 0 51.2-22.92 51.2-51.2v-392.533h392.533c28.28 0 51.2-22.924 51.2-51.2v-34.133c0-28.277-22.92-51.201-51.2-51.201z" />
<glyph unicode="&#xe60f;" glyph-name="gift" d="M952.329 636.709h-184.348c20.133 13.897 24.507 18.694 33.54 27.679 33.428 33.251 51.841 77.659 51.841 121.148 0 44.275-18.526 88.136-52.17 121.588-33.593 33.428-76.563 52.367-120.965 52.367-43.655 0-86.079-18.003-119.47-51.228-31.781-31.579-44.908-86.058-49.61-137.684-4.702 51.624-17.829 106.307-49.61 137.886-33.39 33.226-75.815 51.532-119.47 51.532-44.402 0-87.372-18.382-120.965-51.811-33.644-33.454-52.17-76.225-52.183-120.475 0-43.489 18.412-90.080 51.852-123.331 9.033-8.985 15.844-14.509 33.54-27.674h-158.395c-28.666 0.003-65.197-14.592-65.197-43.26v-241.995h52.663v-350.574c0-28.663 35.771-64.878 64.437-64.878h752.603c28.668 0 38.731 36.214 38.731 64.878v350.574h52.663v241.995c0 28.668-10.822 43.263-39.488 43.263zM406.674-12.8h-272.091v364.251h272.091v-364.251zM406.674 402.651h-323.291v181.394h323.291v-181.394zM412.559 668.891c-76.601 0-131.723 13.062-155.192 36.403-23.912 23.773-36.545 52.313-36.545 82.321 0 30.337 13.103 60.145 36.876 83.791 23.811 23.697 53.779 36.724 84.369 36.724 30.272 0 58.924-12.57 82.874-36.393 37.926-37.711 38.89-143.758 34.835-201.010-12.114-0.837-28.625-1.834-47.202-1.834-0.001-0.001-0.001-0.001-0.015-0.001zM563.2-12.8h-103.863v364.251h103.863v-364.251zM563.2 402.651h-103.863v181.394h103.863v-181.394zM562.518 670.938c-4.055 57.252-3.092 163.087 34.835 200.798 23.95 23.823 52.6 36.393 82.874 36.393 30.59 0 60.558-13.027 84.369-36.724 23.773-23.646 36.863-53.374 36.863-83.711 0-29.981-12.633-58.418-36.533-82.189-23.469-23.341-78.591-36.191-155.192-36.191-18.59 0.001-35.101 0.787-47.215 1.624zM887.954-12.8h-273.554v364.251h273.554v-364.251zM939.154 402.651h-324.754v181.394h324.754v-181.394z" />
<glyph unicode="&#xe610;" glyph-name="cart" d="M349.867 430.933h443.733c14.139 0 25.6-11.461 25.6-25.6v-17.067c0-14.14-11.461-25.6-25.6-25.6h-443.733c-14.14 0-25.6 11.46-25.6 25.6v17.067c0 14.139 11.46 25.6 25.6 25.6zM324.267 593.067c0 14.14 11.46 25.6 25.6 25.6h443.733c14.139 0 25.6-11.46 25.6-25.6v-17.067c0-14.139-11.461-25.599-25.6-25.599h-443.733c-14.14 0-25.6 11.46-25.6 25.599v17.067zM921.6 157.866h-699.733c-56.554 0-102.4 45.847-102.4 102.401v597.333c0 18.852-15.284 34.133-34.133 34.133v1.722c-2.696-0.964-5.508-1.722-8.533-1.722h-51.2c-14.139 0-25.6 11.46-25.6 25.6v17.069c-0.001 14.137 11.46 25.599 25.599 25.599h51.2c3.027 0 5.837-0.758 8.533-1.722v1.722c56.554 0 102.4-45.844 102.4-102.4v-597.333c0-18.852 15.281-34.133 34.133-34.133h699.734c18.852 0 34.133 15.281 34.133 34.133v460.8c0 18.852-15.281 34.133-34.133 34.133v1.722c-2.695-0.964-5.506-1.722-8.533-1.722h-631.467c-14.139 0-25.6 11.46-25.6 25.6v17.066c0 14.14 11.461 25.601 25.6 25.601h631.467c3.028 0 5.838-0.758 8.533-1.722v1.722c56.554 0 102.4-45.846 102.4-102.4v-460.8c0-56.554-45.846-102.401-102.4-102.401zM204.8 72.533c37.702 0 68.267-30.565 68.267-68.267s-30.565-68.266-68.267-68.266-68.267 30.565-68.267 68.267c0 37.702 30.565 68.266 68.267 68.266zM938.667 72.533c37.702 0 68.267-30.565 68.267-68.267s-30.565-68.267-68.267-68.267c-37.702 0.001-68.267 30.566-68.267 68.269s30.565 68.266 68.267 68.266z" />
<glyph unicode="&#xe611;" glyph-name="delete" d="M1009.778 789.333h-241.778v156.445c0 7.853-6.369 14.222-14.222 14.222h-512c-7.857 0-14.222-6.369-14.222-14.222v-156.444h-213.334c-7.854 0-14.222-6.369-14.222-14.222v-28.444c0-7.857 6.369-14.222 14.222-14.222h995.556c7.854 0 14.222 6.366 14.222 14.222v28.444c0 7.853-6.369 14.22-14.222 14.22zM711.111 789.333h-426.667v113.778h426.667v-113.778zM896 675.556h-28.444c-7.857 0-14.222-6.366-14.222-14.222v-668.444h-682.667v668.442c0 7.857-6.369 14.222-14.222 14.222h-28.445c-7.854 0-14.222-6.366-14.222-14.222v-711.114c0-7.854 6.369-14.219 14.222-14.219h768c7.854 0 14.222 6.366 14.222 14.219v711.114c0 7.857-6.368 14.223-14.222 14.223zM355.556 78.222c7.857 0 14.222 6.366 14.222 14.222v512.003c0 7.854-6.366 14.219-14.222 14.219h-28.444c-7.854 0-14.222-6.366-14.222-14.219v-512.003c0-7.857 6.369-14.222 14.222-14.222h28.444zM526.222 78.222c7.854 0 14.222 6.366 14.222 14.222v512.003c0 7.854-6.369 14.219-14.222 14.219h-28.444c-7.854 0-14.222-6.366-14.222-14.219v-512.003c0-7.857 6.369-14.222 14.222-14.222h28.444zM696.889 78.222c7.854 0 14.222 6.366 14.222 14.222v512.003c0 7.854-6.369 14.219-14.222 14.219h-28.444c-7.857 0-14.222-6.366-14.222-14.219v-512.003c0-7.857 6.366-14.222 14.222-14.222h28.444z" />
<glyph unicode="&#xe612;" glyph-name="shop" d="M853.577 332.8c-18.852 0-34.377-15.281-34.377-34.133v-273.433h-614.4v273.433c0 18.852-14.795 34.133-33.646 34.133s-33.646-15.281-33.646-34.133v-273.067c0-37.702 30.321-67.657 68.023-67.657h614.4c37.702 0 68.023 29.955 68.023 67.657v273.067c0 18.852-15.525 34.133-34.377 34.133zM1009.92 644.937c0 0-9.408 16.576-10.541 18.531l-162.38 276.051h-665.6l-145.601-278.18c-2.698-4.681-10.925-25.149-10.925-25.149-9.387-31.451-14.141-36.451-14.141-61.101 0-103.681 84.051-189.412 187.733-189.412 69.255 0 129.593 36.766 162.133 92.57 32.54-55.804 92.88-93.828 162.133-93.828 69.255 0 129.595 37.395 162.133 93.199 32.54-55.804 92.88-93.513 162.133-93.513 103.683 0 187.733 87.311 187.733 190.992 0.003 24.649-3.837 42.503-14.809 69.84zM836.999 452.267c-42.221 0-81.749 22.81-103.161 59.53l-24.352 41.762v162.51c0 14.139-11.461 25.966-25.6 25.966h-17.554c-14.139 0-25.6-11.827-25.6-25.966v-161.674l-24.839-42.598c-21.41-36.719-60.94-59.53-103.161-59.53s-81.749 22.81-103.161 59.53l-24.839 42.598v161.674c0 14.139-11.461 25.966-25.6 25.966h-17.554c-14.139 0-25.6-11.827-25.6-25.966v-162.512l-24.352-41.762c-21.412-36.719-60.94-59.53-103.161-59.53-65.875 0-119.467 53.593-119.467 119.467 0 15.114 2.901 30.025 8.624 44.317l8.114 16.416-0.037 0.159 127.283 238.14h584.583l144.273-242.53 2.97-4.646 3.035-7.562c5.721-14.291 8.624-29.191 8.624-44.306-0.001-65.874-53.593-119.455-119.467-119.455z" />
<glyph unicode="&#xe613;" glyph-name="rice" d="M723.649 521.143h41.384c11.264 16.091 17.92 36.155 17.92 57.324 0 54.983-44.573 99.879-99.556 99.879-4.219 0-8.349-0.293-12.428-0.803 11.358-18.805 21.071-38.669 29.115-59.398 15.269-6.497 25.98-21.617 25.98-39.259 0-8.935-2.766-17.642-7.462-24.496 2.15-10.781 3.82-21.545 5.047-33.248zM342.064 748.699c134.684 0 246.031-98.825 266.531-227.556h57.483c-20.953 160.914-157.853 284.444-324.014 284.444s-303.062-123.53-324.014-284.444h57.483c20.5 128.731 131.847 227.556 266.531 227.556zM683.399 849.123c149.239 0 270.222-121.417 270.222-270.656 0-19.529-2.178-38.306-6.115-57.324h57.738c3.25 19.017 5.266 37.881 5.266 57.324 0 180.658-146.452 327.434-327.111 327.434-75.802 0-145.388-25.969-200.853-69.243 20.258-7.971 39.718-17.494 58.124-28.638 41.452 25.879 90.263 41.103 142.73 41.103zM888.825 521.143c5.013 19.017 7.907 37.591 7.907 57.324 0 117.82-95.513 213.658-213.333 213.658-32.963 0-64.051-7.639-91.917-20.986 15.533-13.289 29.99-27.75 43.229-43.325 15.265 4.975 31.526 7.756 48.45 7.756 86.402 0 156.444-70.497 156.444-156.928 0-20.163-3.944-39.942-10.884-57.496h60.104zM252.458 521.143h179.213c-16.014 33.646-49.961 56.889-89.607 56.889-39.645 0-73.592-23.243-89.606-56.889zM492.281 521.143h58.835c-19.769 98.011-105.844 170.667-209.050 170.667s-189.282-72.656-209.051-170.667h58.361c18.527 65.829 78.792 114.014 150.452 114.014s131.925-48.185 150.453-114.014zM0.731 471.406l90.444-302.030c0.301 0.192 0.001 0.268 0.301 0.459 32.825-103.598 128.92-181.172 243.378-181.172 0.053 0 0.073 0 0.099 0 0.045 0 0.069 0 0.061 0h355.495c113.778 0 211.077 77.994 243.763 181.811 0.402-0.25-0.016-0.035 0.385-0.288l90.073 301.22h-1024zM901.24 255.257l-21.748-69.715c-26.236-83.33-103.787-140.098-191.204-140.098l-352.009 0.101c-0.651-0.003-1.298 0.459-1.94 0.436-86.712 0.549-162.415 59.175-188.63 141.903l-14.942 45.002-54.006 181.469h871.939l-47.461-159.097z" />
<glyph unicode="&#xe614;" glyph-name="check" d="M1016.364 741.078l-635.961-635.961c-10.181-10.179-29.703-12.75-39.885-2.572 0 0-21.287 18.684-25.657 23.053l-307.226 307.229c-10.179 10.181-10.179 26.685 0 36.865l12.291 12.291c10.181 10.181 26.685 10.181 36.867 0l301.082-301.084 609.334 609.336c10.181 10.181 26.688 10.181 36.867 0l12.289-12.289c10.18-10.18 10.18-26.688-0.001-36.868z" />
<glyph unicode="&#xe615;" glyph-name="close" d="M577.467 449.839l430.797-430.794c14.754-14.754 14.754-38.679 0-53.435l-17.815-17.812c-14.757-14.754-38.679-14.754-53.435 0l-430.794 430.792-411.963-411.964c-14.61-14.607-38.295-14.607-52.904 0l-17.638 17.635c-14.607 14.61-14.607 38.298 0 52.904l411.964 411.964-420.431 420.432c-14.754 14.754-14.754 38.681 0 53.432l17.815 17.812c14.754 14.759 38.679 14.759 53.435 0l420.428-420.428 429.398 429.397c14.61 14.61 38.298 14.61 52.907 0l17.632-17.635c14.61-14.607 14.61-38.298 0-52.904l-429.397-429.397z" />
<glyph unicode="&#xe616;" glyph-name="locate-manual" d="M512.064-64c-282.816 0-512.064 229.184-512.064 511.968s229.248 512.032 512.064 512.032 512.032-229.248 512.032-512.032c0-282.784-229.248-511.968-512.032-511.968zM529.12 924.96v-238.112c0-9.408-7.648-17.024-17.056-17.024s-17.056 7.616-17.056 17.024v238.112c-250.24-8.832-451.136-209.696-460-459.904h238.112c9.408 0 17.056-7.616 17.056-17.056 0-9.408-7.648-17.088-17.056-17.088h-238.112c8.864-250.24 209.76-451.040 460-459.904v238.016c0 9.472 7.648 17.056 17.056 17.056s17.056-7.616 17.056-17.056v-238.016c250.24 8.832 451.136 209.664 460 459.904h-238.112c-9.408 0-17.056 7.68-17.056 17.088 0 9.472 7.648 17.056 17.056 17.056h238.112c-8.864 250.24-209.76 451.072-460.032 459.936z" />
<glyph unicode="&#xe617;" glyph-name="locate-map" horiz-adv-x="960" d="M958.208 912.16l-205.312 47.328c-4.416 0.992-9.056 0.544-13.216-1.344l-246.080-112.576-226.88 94.592c-4.896 2.048-10.432 2.144-15.392 0.192l-238.176-92.8c-7.904-3.072-13.12-10.72-13.12-19.2v-653.568c0-6.784 3.36-13.184 8.992-16.992s12.736-4.672 19.104-2.176l230.464 89.824 227.552-94.912c2.528-1.088 5.216-1.568 7.936-1.568 2.912 0 5.856 0.608 8.576 1.888l33.184 15.168c50.848-101.248 117.056-203.008 128.704-220.736 3.808-5.792 10.272-9.28 17.216-9.28s13.376 3.488 17.216 9.28c14.496 22.048 113.472 174.112 162.144 293.472l87.904-20.256c6.112-1.376 12.544 0.064 17.44 3.968s7.744 9.856 7.744 16.096v653.536c0.032 9.6-6.624 17.92-15.968 20.064zM681.664-5.408c-58.24 92-165.152 275.552-165.152 346.816 0 91.040 74.080 165.152 165.152 165.152s165.152-74.080 165.152-165.152c0-71.264-106.88-254.816-165.152-346.816zM932.992 264.448l-57.568 13.248c7.904 24.32 12.64 46.176 12.64 63.712 0 113.76-92.576 206.336-206.336 206.336s-206.336-92.544-206.336-206.336c0-34.208 17.824-84.704 42.528-138.304l-24.256-11.104-226.912 94.656c-2.528 1.056-5.216 1.568-7.936 1.568-2.528 0-5.056-0.448-7.488-1.408l-210.112-81.888v609.344l217.344 84.672 227.552-94.848c5.312-2.24 11.296-2.144 16.512 0.288l247.872 113.408 182.496-42.080v-611.232zM258.816 816.096c-11.36 0-20.608-9.216-20.608-20.608v-414.752c0-11.392 9.216-20.608 20.608-20.608s20.608 9.216 20.608 20.608v414.752c0 11.392-9.216 20.608-20.608 20.608zM494.016 735.84c-11.36 0-20.608-9.216-20.608-20.608v-158.208c0-11.392 9.216-20.608 20.608-20.608s20.608 9.216 20.608 20.608v158.208c0 11.392-9.216 20.608-20.608 20.608zM732.256 824.96v-209.632c0-11.392 9.216-20.608 20.608-20.608s20.608 9.216 20.608 20.608v209.632c0 11.392-9.216 20.608-20.608 20.608s-20.608-9.216-20.608-20.608zM681.664 442.336c-42.464 0-76.992-34.56-76.992-77.024s34.528-76.96 76.992-76.96c42.464 0 76.992 34.528 76.992 76.96s-34.528 77.024-76.992 77.024zM681.664 329.536c-19.744 0-35.808 16.064-35.808 35.776 0 19.744 16.064 35.808 35.808 35.808s35.808-16.064 35.808-35.808c0-19.712-16.064-35.776-35.808-35.776z" />
<glyph unicode="&#xe618;" glyph-name="search" d="M1023.2-19.712l-44.256-44.288-254.464 254.688c-76.832-66.656-176.832-107.296-286.528-107.296-241.888 0-437.952 196.256-437.952 438.304s196.064 438.336 437.952 438.336 437.952-196.256 437.952-438.336c0-109.76-40.608-209.824-107.232-286.72l254.496-254.688zM437.952 897.376c-207.328 0-375.392-168.192-375.392-375.712 0-207.456 168.064-375.68 375.392-375.68s375.392 168.224 375.392 375.68c0 207.52-168.096 375.712-375.392 375.712z" />
<glyph unicode="&#xe800;" glyph-name="order" d="M695.369 348.526h-99.035c-14.26 0-25.819-11.561-25.819-25.822v-17.111c0-14.261 11.559-25.822 25.819-25.822h99.035c14.26 0 25.819 11.561 25.819 25.822v17.111c0 14.261-11.559 25.822-25.819 25.822zM687.543 591.048c0 13.907-11.274 25.18-25.183 25.18h-66.664c-13.907 0-25.183-11.274-25.183-25.18v-16.931c0-13.907 11.274-25.18 25.183-25.18h66.664c13.907 0 25.183 11.274 25.183 25.18v16.931zM344.083 414.354h234.897c13.907 0 25.18 11.274 25.18 25.18v16.931c0 13.907-11.274 25.18-25.18 25.18h-234.897c-13.907 0-25.18-11.274-25.18-25.18v-16.931c0-13.906 11.274-25.18 25.18-25.18zM519.314 306.148v16.785c0 14.261-10.92 25.593-25.182 25.593h-149.801c-14.26 0-25.429-11.331-25.429-25.593v-16.785c0-14.263 11.169-26.377 25.429-26.377h149.801c14.261 0 25.182 12.115 25.182 26.377zM344.216 683.52h352.525c13.907 0 24.447 11.002 24.447 24.904v16.789c0 13.907-10.541 25.599-24.447 25.599h-352.525c-13.906 0-25.313-11.691-25.313-25.599v-16.789c0-13.902 11.407-24.904 25.313-24.904zM343.691 548.937h151.050c13.907 0 24.573 11.877 24.573 25.783v16.786c0 13.906-10.666 24.721-24.573 24.721h-151.050c-13.906 0-24.788-10.815-24.788-24.721v-16.786c0-13.906 10.882-25.783 24.788-25.783zM855.771 213.943v554.887c0 73.261-59.682 132.656-133.85 132.656l-537.601-0.262c-1.463 0.050-3.483 0.262-5.253 0.262-98.892 0-179.067-79.189-179.067-176.876 0-18.88 0-26.304 0-26.304v-67.148l184.32 0.271v-503.77c0-50.847 29.175-95.002 71.692-117.268-0.269-0.116-0.426-0.243-0.695-0.357 12.622-9.475 28.36-15.519 45.359-15.519h607.125c55.625 0 116.199 45.584 116.199 101.211v118.218h-168.229zM184.686 698.239l-117.394-0.091c0 7.68-0.143 14.615-0.143 22.187 0 45.382 27.739 84.326 67.335 101.354 28.387-15.11 49.23-43.415 50.214-76.624l-0.012-46.826zM327.212 63.473c-42.759 6.669-75.6 43.23-75.6 87.344v594.33l0.18 0.573c-0.671 33.2-11.241 63.605-29.387 88.474h477.134c49.446 0 88.942-36.007 88.942-84.852v-535.4h-420.418c1.653-17.554 2.734-20.353 2.734-30.777 0-45.39-16.456-87.119-43.584-119.692zM956.709 95.725c0-18.512-30.395-33.919-48.908-33.919h-500.239c13.928 33.646 23.422 51.393 27.736 84.846h521.411v-50.926z" />
<glyph unicode="&#xe801;" glyph-name="user" d="M1000.426 26.099l0.053-0.061c1.554-18.834-14.569-33.747-33.371-33.747s-34.56 15.278-38.856 33.747l0.015 0.061c-45.552 187.597-214.622 327.105-416.787 327.105s-371.238-139.508-416.787-327.105l-0.088-0.061c-2.835-19.2-17.18-33.747-35.983-33.747s-37.616 14.273-35.331 33.93l-0.010-0.121c0.389 1.859 2.414 10.863 3.406 13.351 40.757 170.834 169.209 307.308 335.104 359.705-75.633 48.956-125.769 133.742-125.769 230.337 0 151.67 123.326 274.624 275.457 274.624s275.459-122.953 275.459-274.624c0-96.484-50.017-181.192-125.5-230.173 170.601-53.603 301.883-195.931 338.989-373.22zM718.819 628.123c0 114.096-92.495 206.592-206.593 206.592s-206.593-92.495-206.593-206.592c0-110.159 86.284-199.917 194.918-206.005 3.787 0.086 19.011 0.067 22.9-0.022 108.847 5.865 195.369 95.716 195.369 206.027z" />
<glyph unicode="&#xe802;" glyph-name="coupon" horiz-adv-x="1324" d="M1238.215 874.638v-170.339c-47.803-9.987-91.892-37.858-124.842-79.813-77.807-98.977-77.807-253.994 0-353.014 32.95-41.87 77.039-69.741 124.799-79.728v-170.425h-1152.854v170.254c47.973 9.774 91.38 37.303 124.842 79.941 77.765 98.934 77.765 253.951 0 352.971-33.462 42.638-76.783 70.167-124.799 79.941v170.254h1152.854zM1277.823 960c0 0-0.043 0-0.043 0h-1231.984c-12.164 0-23.816-6.103-32.437-17.072-8.579-10.926-13.402-25.737-13.402-41.23v-220.361c0-32.224 20.487-58.345 45.797-58.345 0 0 0.043 0 0.043 0 36.748-0.043 71.277-18.225 97.27-51.26 53.607-68.247 53.607-179.217 0-247.464-25.993-33.035-60.522-51.217-97.312-51.26-0.043 0-0.085 0-0.128 0-12.121 0-23.731-6.189-32.267-17.030-8.622-10.969-13.402-25.779-13.402-41.272v-220.404c0-16.091 5.122-30.688 13.402-41.23s19.761-17.072 32.437-17.072h1231.984c12.164 0 23.816 6.189 32.437 17.072 8.579 10.926 13.402 25.779 13.402 41.23v220.447c0 32.224-20.53 58.302-45.839 58.302-36.748 0-71.277 18.225-97.27 51.217-53.65 68.247-53.65 179.217 0 247.464 25.95 33.035 60.522 51.26 97.27 51.26 12.164 0 23.816 6.146 32.437 17.072 8.579 10.926 13.402 25.779 13.402 41.23v220.361c0 32.267-20.487 58.345-45.797 58.345v0zM933.474-21.234h-85.362v170.724h85.362v-170.724zM933.474 234.852h-85.362v170.724h85.362v-170.724zM933.474 490.937h-85.362v170.724h85.362v-170.724zM933.474 747.022h-85.362v170.724h85.362v-170.724z" />
<glyph unicode="&#xe803;" glyph-name="jifen" horiz-adv-x="814" d="M569.148 302.412h-324.594c-14.491 0-26.251 11.734-26.251 26.251s11.76 26.251 26.251 26.251h324.594c14.491 0 26.251-11.734 26.251-26.251s-11.76-26.251-26.251-26.251zM569.148 215.836h-324.594c-14.491 0-26.251 11.734-26.251 26.251s11.76 26.251 26.251 26.251h324.594c14.491 0 26.251-11.734 26.251-26.251s-11.76-26.251-26.251-26.251zM406.865 96.84c-14.491 0-26.251 11.734-26.251 26.251v194.756c0 14.517 11.76 26.251 26.251 26.251s26.251-11.734 26.251-26.251v-194.756c0-14.517-11.76-26.251-26.251-26.251zM406.891 291.596c-8.322 0-16.538 3.938-21.631 11.34l-141.966 205.572c-8.243 11.944-5.25 28.272 6.668 36.515 11.944 8.217 28.299 5.224 36.515-6.668l141.966-205.572c8.243-11.918 5.25-28.272-6.668-36.541-4.541-3.124-9.765-4.646-14.884-4.646zM406.838 291.596c-5.145 0-10.343 1.523-14.884 4.646-11.944 8.243-14.911 24.623-6.668 36.541l141.966 205.572c8.217 11.944 24.597 14.937 36.515 6.668 11.944-8.243 14.911-24.597 6.668-36.515l-141.966-205.572c-5.119-7.403-13.309-11.34-21.631-11.34zM813.703 345.595c0-226.231-182.13-409.595-406.838-409.595s-406.865 183.363-406.865 409.595c0 171.472 104.742 318.162 253.27 379.196-0.63 1.313-1.391 2.599-1.838 3.938l-58.802 178.507c-9.267 28.141-11.629 52.765 18.848 52.765 30.372 0 97.313-25.7 195.386-25.962 98.048 0.263 165.014 25.962 195.36 25.962 30.504 0 28.115-24.623 18.848-52.765l-58.802-178.533c-0.473-1.339-1.181-2.625-1.811-3.938 148.502-61.007 253.244-207.698 253.244-379.17zM540.456 855.626c11.34 29.637 5.723 36.489-9.844 33.181-21.447-4.673-62.399-10.395-123.747-10.395-61.322 0-102.274 5.723-123.721 10.395-15.593 3.281-21.211-3.544-9.87-33.181l27.564-91.249c2.914-9.45 10.212-5.408 16.984-7.272 28.325 8.138 58.12 2.546 89.043 2.546s60.719 5.565 89.070-2.546c6.773 1.89 7.849 6.878 10.395 15.173l34.126 83.347zM406.865 695.311c-191.869 0-347.354-156.587-347.354-349.742s155.511-349.69 347.354-349.69c191.842 0 347.354 156.535 347.354 349.69s-155.511 349.742-347.354 349.742z" />
<glyph unicode="&#xe804;" glyph-name="yue" horiz-adv-x="1042" d="M761.867 553.172c-2.26 6.48-4.629 12.907-8.468 19.36l-5.364 9.421c12.28 17.29 19.060 35.861 19.060 55.329v110.441c0 14.976-4.057 30.197-12.389 45.173l-2.56 4.82c3.431 7.924 5.773 16.201 5.773 24.724 0 89.311-192.972 137.561-374.398 137.561s-374.371-48.223-374.371-137.561c0-8.523 2.396-16.882 5.854-24.724l-2.668-4.82c-8.196-15.030-12.335-30.197-12.335-45.173v-110.468c0-19.469 6.807-38.039 19.060-55.248l-5.5-9.557c-8.986-15.629-13.56-31.64-13.56-47.27v-110.468c0-18.87 6.399-37.059 18.107-54.050l-4.547-7.733c-8.986-15.711-13.56-31.667-13.56-47.27v-110.468c0-98.215 168.466-175.11 383.52-175.11 43.975 0 85.935 3.431 124.954 9.367-2.478 3.295-4.411 7.052-6.698 10.565 56.691-63.58 138.813-104.015 230.521-104.015 170.726 0 309.539 138.977 309.539 309.593 0 160.76-123.238 292.521-279.968 307.579zM383.52 918.884c206.559 0 333.392-56.146 333.392-96.445 0-40.19-126.833-96.336-333.392-96.336-206.45 0-333.228 56.173-333.228 96.336 0 40.326 126.778 96.445 333.228 96.445zM41.061 729.098c61.537-52.089 204.245-79.073 342.459-79.073 138.35 0 280.949 26.984 342.568 79.236v-91.979c0-63.444-140.638-133.994-342.568-133.994-201.794 0-342.459 70.55-342.459 133.994v91.816zM41.061 518.646c62.926-57.671 192.563-94.457 342.459-94.457 35.724 0 69.461 2.723 102.054 6.807-25.132-33.492-44.138-71.531-54.158-113.572-2.723-11.382-4.874-23.008-6.317-34.853-13.778-0.681-27.038-1.797-41.551-1.797-201.794 0-342.459 70.632-342.459 133.967v103.906zM383.52 61.172c-201.794 0-342.459 70.659-342.459 134.021v103.851c62.926-57.753 192.563-94.512 342.459-94.512 14.377 0 28.019 0.953 41.96 1.77 4.874-37.576 16.201-73.219 33.301-105.349 6.235-11.926 13.696-22.981 21.429-33.846-30.306-3.703-62.572-5.936-96.69-5.936zM732.296-2.326c-71.503 0-135.927 30.496-181.182 79.127-10.265 10.973-19.441 22.9-27.556 35.479-24.669 38.611-39.237 84.192-39.237 133.313 0 0.708 0.082 1.361 0.082 2.069 0.109 14.404 1.607 28.509 4.084 42.287 2.233 12.498 5.555 24.669 9.612 36.623 30.251 87.378 108.045 152.673 202.393 164.844 10.483 1.389 20.994 2.26 31.831 2.26 3.050 0 6.154-0.327 9.312-0.408 132.333-5.065 238.689-114.008 238.689-247.675-0.054-136.608-111.339-247.92-248.029-247.92zM923.988 334.251l-31.313 31.177c-5.854 5.773-15.194 5.773-20.857 0l-173.231-173.149-89.311 89.801c-5.691 5.745-15.030 5.745-20.83 0l-31.177-31.232c-5.773-5.773-5.773-15.085 0-20.857l130.808-131.543c5.691-5.745 15.003-5.745 20.803 0l215.109 214.864c5.664 5.8 5.664 15.167 0 20.939z" />
<glyph unicode="&#xe805;" glyph-name="circle-close" d="M511.997 688.868c-161.58 0-292.569-130.989-292.569-292.57 0-161.584 130.989-292.573 292.569-292.573 161.586 0 292.574 130.989 292.574 292.573 0 161.581-130.989 292.57-292.574 292.57zM645.973 293.356c8.569-8.568 8.569-22.462 0-31.032-4.285-4.285-9.901-6.428-15.515-6.428-5.616 0-11.232 2.143-15.517 6.428l-102.941 102.941-102.941-102.941c-4.285-4.285-9.901-6.428-15.517-6.428s-11.232 2.143-15.515 6.428c-8.569 8.568-8.569 22.462 0 31.032l102.941 102.941-102.941 102.941c-8.569 8.568-8.569 22.462 0 31.032 8.568 8.568 22.462 8.568 31.032 0l102.941-102.941 102.941 102.941c8.568 8.568 22.462 8.568 31.032 0s8.569-22.462 0-31.032l-102.941-102.941 102.941-102.941z" />
<glyph unicode="&#xe806;" glyph-name="circle-right" d="M511.997 688.868c-161.58 0-292.569-130.989-292.569-292.57 0-161.584 130.989-292.573 292.569-292.573 161.586 0 292.574 130.989 292.574 292.573 0 161.581-130.989 292.57-292.574 292.57zM693.933 483.874l-206.185-206.185c-4.285-4.285-9.901-6.428-15.515-6.428-5.616 0-11.232 2.143-15.517 6.428l-136.501 136.499c-8.569 8.568-8.569 22.462 0 31.032 8.568 8.568 22.462 8.568 31.032 0l120.984-120.984 190.67 190.67c8.568 8.568 22.462 8.568 31.032 0s8.571-22.462 0-31.032z" />
<glyph unicode="&#xe807;" glyph-name="mima" horiz-adv-x="830" d="M734.485 572.541h-42.316l-0.221 129.162c-15.36 145.27-133.009 258.297-276.010 258.297-153.462 0-277.836-130.103-277.836-290.595v-96.865h-42.316c-52.888 0-95.786-42.759-95.786-95.481v-445.578c0-52.722 42.897-95.481 95.786-95.481h638.699c52.888 0 95.786 42.759 95.786 95.481v445.578c0 52.722-42.897 95.481-95.786 95.481zM193.73 683.243c0 124.845 102.843 212.189 222.208 212.189 108.821 0 205.575-75.001 220.603-184.514v-138.378h-442.811v110.703zM775.057 57.081c0-36.31-29.309-65.73-65.425-65.73h-588.994c-36.144 0-65.425 29.419-65.425 65.73v394.378c0 36.31 29.309 65.73 65.425 65.73h588.966c36.144 0 65.425-29.419 65.425-65.73v-394.378zM415.135 383.986c-35.259 0-63.875-28.644-63.875-64.014 0-23.635 12.925-44.032 31.938-55.13v-104.863c0-17.685 14.308-31.993 31.938-31.993s31.938 14.336 31.938 31.993v104.863c19.013 11.098 31.938 31.523 31.938 55.13 0 35.37-28.617 64.014-63.875 64.014z" />
<glyph unicode="&#xe808;" glyph-name="circle-question" horiz-adv-x="1017" d="M430.145 606.144c15.027 29.584 41.794 44.376 80.3 44.376 30.054 0 52.829-9.861 68.345-29.584 11.27-14.557 16.886-31.463 16.886-50.716 0-22.54-6.124-41.559-18.314-57.055-4.696-5.635-17.394-19.253-38.017-40.854-27.256-28.175-44.65-49.816-52.144-64.823-9.881-20.173-14.812-49.072-14.812-86.639h61.966c0 38.526 7.533 67.875 22.54 88.048 5.655 7.983 18.568 21.601 38.741 40.854 26.297 24.888 43.457 44.141 51.44 57.76 9.861 16.436 14.792 35.924 14.792 58.464 0 43.202-15.066 77.482-45.1 102.84-27.706 23.48-62.436 35.219-104.249 35.219-18.334 0-36.628-2.818-54.962-8.453-18.314-5.635-34.045-13.638-47.194-23.949-23.48-17.864-39.211-38.996-47.174-63.395-5.635-16.905-8.472-39.915-8.472-69.030h61.986c0.039 27.236 4.52 49.542 13.442 66.936v0zM472.388 263.793v-71.847h66.936v71.847h-66.936zM508.331-60.732c-280.541 0-508.801 228.221-508.801 508.723s228.26 508.723 508.801 508.723c280.521 0 508.762-228.221 508.762-508.723s-228.24-508.723-508.762-508.723zM508.331 917.6c-258.979 0-469.668-210.67-469.668-469.59 0-258.94 210.689-469.59 469.668-469.59 258.959 0 469.629 210.67 469.629 469.59s-210.67 469.59-469.629 469.59z" />
<glyph unicode="&#xe809;" glyph-name="mobile" horiz-adv-x="723" d="M40.9 960c-22.468 0-40.9-16.745-40.9-37.225v-949.549c0-20.48 18.432-37.225 40.9-37.225h641.265c22.528 0 40.9 16.745 40.9 37.225v949.549c0 20.48-18.312 37.225-40.84 37.225h-641.325zM361.412-33.882c-36.021 0-65.295 26.624-65.295 59.392s29.274 59.452 65.295 59.452 65.235-26.624 65.235-59.392-29.214-59.452-65.235-59.452zM601.931 152.305c0-20.48-18.432-37.225-40.96-37.225h-399.119c-22.528 0-40.96 16.745-40.96 37.225v646.084c0 20.48 18.432 37.225 40.96 37.225h399.119c22.528 0 40.96-16.745 40.96-37.225v-646.084z" />
<glyph unicode="&#xe80a;" glyph-name="trophy" horiz-adv-x="1025" d="M854.992 878.592c-5.957-0.427-11.849-1.43-17.806-1.857-18.34-1.302-22.268 7.302-20.731 24.66 4.548 51.561-1.174 57.859-54.593 58.35-83.629 0.833-167.279 0.256-250.929 0.256-85.123 0.043-170.289 0.491-255.413-0.192-34.758-0.278-60.272-12.298-49.127-53.995 7.814-29.228-5.338-35.228-30.147-30.061-22.332 4.633-44.344 5.060-66.57-0.47-87.387-21.735-130.45-111.875-99.855-210.791 31.428-101.606 94.539-174.154 198.066-207.439 33.883-10.91 58.991-26.602 77.096-60.528 27.734-51.924 70.605-92.126 127.931-112.815 74.299-26.773 74.512-26.239 73.85-102.118-0.491-61.702-3.352-64.627-65.609-67.424-77.117-3.416-126.073-36.189-149.195-99.876-19.108-52.628-3.501-77.267 52.265-77.736 113.519-0.961 227.060-0.491 340.558-0.278 19.386 0.064 38.9 0.491 58.009 3.267 33.776 4.889 44.985 25.065 36.231 57.582-16.183 60.058-67.68 106.047-129.553 114.95-87.942 12.682-86.063 12.789-91.166 101.99-2.135 37.171 10.248 55.19 45.903 62.343 64.093 12.917 113.263 51.86 142.854 106.217 23.891 43.832 56.578 62.556 100.581 78.398 110.786 39.861 173.172 124.28 193.732 236.988 20.347 111.683-52.906 188.416-166.382 180.58v0zM204.856 513.652c-87.942 32.815-147.978 118.707-148.811 212.862-0.491 57.389 37.363 103.314 86.298 104.659 47.931 1.345 89.287-39.882 94.133-94.646 5.636-63.453 12.191-126.863 15.458-190.444 2.178-42.487-7.046-47.355-47.077-32.431v0zM609.058 60.322c25.941-0.299 50.13-8.476 69.346-26.901 8.433-8.070 19.108-16.803 15.009-30.232-4.291-14.134-18.254-14.113-29.89-14.219-50.75-0.491-101.542-0.214-152.291-0.214v0.299c-49.276 0-98.51-0.235-147.786 0.192-11.743 0.107-25.492-0.085-30.317 13.771-4.697 13.515 5.743 22.097 14.369 30.211 18.041 16.909 39.541 26.859 64.499 27.008 65.695 0.427 131.389 0.833 197.063 0.085v0zM751.379 846.139c-19.023-103.741-32.111-207.78-31.235-313.72 0.918-114.032-82.156-206.201-186.686-213.161-121.718-8.113-219.502 65.396-229.515 187.583-9.928 121.184-13.856 242.752-35.42 362.805-5.85 32.666 15.65 37.128 40.587 37.149 67.168 0.021 134.336 0 201.504 0v0.149c64.179 0 128.4 0.747 192.579-0.235 48.55-0.747 57.112-12.063 48.187-60.571v0zM969.13 713.298c-10.675-88.262-58.179-150.882-134.314-193.454-47.654-26.624-60.293-18.767-60.592 34.566-0.043 13.365 0 26.73 0 40.096-0.576 0.064-1.217 0.107-1.836 0.171 4.505 48.721 7.216 97.72 13.878 146.185 7.964 57.582 55.703 96.439 104.040 88.262 54.55-9.245 85.999-56.77 78.825-115.825v0zM512.406 789.39l56.301-100.645 114.459-21.692-79.679-83.885 14.475-114.032-105.556 48.807-105.556-48.785 14.475 114.032-79.722 83.864 114.48 21.692 56.322 100.645z" />
<glyph unicode="&#xe80b;" glyph-name="little-user" horiz-adv-x="797" d="M791.040 119.751c-17.010 86.357-233.358 145.465-294.116 160.484v72.476c62.123 27.477 108.601 79.986 124.132 143.417 19.968 1.991 52.565 13.426 57.116 46.763 0.455 3.47 1.252 8.078 2.162 13.426 8.59 49.721 15.36 104.676-13.938 127.147-7.623 5.803-20.537 10.809-39.538 7.908v57.913c-0.057 116.224-102.457 210.716-228.352 210.716s-228.238-94.492-228.238-210.716v-57.913c-19.058 2.958-31.972-2.048-39.538-7.794-29.355-22.528-22.642-77.483-13.995-127.204 0.91-5.404 1.707-10.012 2.162-13.426 4.551-33.337 37.148-44.828 57.060-46.763 15.531-63.374 62.066-115.883 124.075-143.417v-72.476c-60.757-15.019-276.992-74.012-293.49-158.322-0.569-1.593-14.222-40.562-0.512-101.717l1.707-7.623 7.566-3.413c6.713-3.015 165.035-73.216 383.204-73.216s376.434 70.201 383.090 73.216l7.623 3.413 1.65 7.623c13.71 60.7 0.341 99.499 0.171 99.499z" />
<glyph unicode="&#xe80c;" glyph-name="screen" horiz-adv-x="791" d="M603.445 792.566h-413.737c-10.711 0-19.394-8.678-19.394-19.382v-533.991h-12.283v-18.101h12.283v-98.274c0-10.704 8.683-19.382 19.394-19.382h413.737c10.711 0 19.394 8.678 19.394 19.382v650.367c0 10.704-8.683 19.382-19.394 19.382zM599.566 118.949h-405.98c-2.856 0-5.172 2.316-5.172 5.172v96.97h3.232v18.101h-3.232v417.616h17.455v18.101h-17.455v94.384c0 2.856 2.316 5.172 5.172 5.172h405.98c2.856 0 5.172-2.316 5.172-5.172v-94.384h-16.162v-18.101h16.162v-417.616h-30.384v-18.101h30.384v-96.97c0-2.856-2.316-5.172-5.172-5.172zM217.506 239.192h33.616v-18.101h-33.616v18.101zM350.677 674.909h33.616v-18.101h-33.616v18.101zM231.728 674.909h33.616v-18.101h-33.616v18.101zM336.455 239.192h33.616v-18.101h-33.616v18.101zM112.778 674.909h33.616v-18.101h-33.616v18.101zM291.203 674.909h33.616v-18.101h-33.616v18.101zM276.98 239.192h33.616v-18.101h-33.616v18.101zM52.011 293.495h18.101v-33.616h-18.101v33.616zM52.011 352.97h18.101v-33.616h-18.101v33.616zM52.011 590.869h18.101v-33.616h-18.101v33.616zM52.011 471.919h18.101v-33.616h-18.101v33.616zM98.556 239.192h33.616v-18.101h-33.616v18.101zM52.011 531.394h18.101v-33.616h-18.101v33.616zM53.304 674.909h-1.293v-58.182h18.101v40.081h16.808v18.101h-16.808zM52.011 234.020v-12.929h25.859c1.575 0 2.586 0 2.586 0v18.101h-28.444v-5.172zM52.011 412.444h18.101v-33.616h-18.101v33.616zM723.041 385.293h18.101v-33.616h-18.101v33.616zM723.041 504.242h18.101v-33.616h-18.101v33.616zM723.041 444.768h18.101v-33.616h-18.101v33.616zM723.041 325.818h18.101v-33.616h-18.101v33.616zM395.93 239.192h33.616v-18.101h-33.616v18.101zM707.526 674.909v-18.101h15.515v-7.758h18.101v25.859zM723.041 623.192h18.101v-33.616h-18.101v33.616zM723.041 563.717h18.101v-33.616h-18.101v33.616zM723.041 239.192h-29.737v-18.101h47.778v11.636h0.061v33.616h-18.101zM469.627 674.909h33.616v-18.101h-33.616v18.101zM455.405 239.192h33.616v-18.101h-33.616v18.101zM410.152 674.909h33.616v-18.101h-33.616v18.101zM529.102 674.909h33.616v-18.101h-33.616v18.101zM633.829 239.192h33.616v-18.101h-33.616v18.101zM648.051 674.909h33.616v-18.101h-33.616v18.101zM514.879 239.192h33.616v-18.101h-33.616v18.101zM434.985 561.398l-47.899 47.643 0.256-95.544zM513.324 497.695c-0.012 0.027-0.026 0.053-0.037 0.079-0.127 0.265-0.246 0.533-0.374 0.796l-0.014-0.008c-1.549 2.794-4.524 4.687-7.945 4.687-5.015 0-9.080-4.065-9.080-9.080 0-1.595 0.415-3.094 1.138-4.396 6.878-14.446 10.758-30.595 10.758-47.661 0-61.409-49.783-111.192-111.192-111.192s-111.192 49.783-111.192 111.192c0 58.235 44.778 105.983 101.777 110.767v18.184c-67.010-4.823-119.878-60.709-119.878-128.95 0-71.406 57.887-129.293 129.293-129.293s129.293 57.887 129.293 129.293c-0.001 19.901-4.514 38.743-12.547 55.583z" />
<glyph unicode="&#xe900;" glyph-name="reload" d="M911.309 559.347l54.149 200.961c4.114 15.281 19.98 24.343 35.287 20.263 15.309-4.076 24.493-19.819 20.376-35.097l-74.582-276.802c-0.901-3.351-7.453-27.683-35.29-20.265l-278.339 74.171c-15.309 4.081-24.493 19.816-20.375 35.1 4.116 15.277 19.984 24.339 35.293 20.262l212.645-56.664c-27.361 147.555-136.836 273.799-292.152 315.19-215.156 57.329-436.423-69.666-494.089-283.69-57.661-214.025 70.11-434.027 285.263-491.362 196.231-52.287 397.138 48.982 474.719 229.518l56.225-14.986c-86.408-211.082-318.738-330.414-545.858-269.891-246.054 65.562-391.914 316.969-326.015 561.551 65.9 244.584 318.618 389.783 564.673 324.217 167.835-44.721 288.807-175.928 328.069-332.478z" />
<glyph unicode="&#xe901;" glyph-name="restaurant-closed" d="M670.622 499.675c-14.659-12.414-25.935-22.554-33.807-30.426-2.272-28.182-5.072-54.092-8.452-77.757l49.020-54.091v43.949h94.66v40.568h-77.757v54.091h77.757v38.878h-84.518c-3.381-3.381-9.033-8.452-16.903-15.212zM973.912 768.366h-922.653c-28.309 0-51.259-22.949-51.259-51.259v-538.214c0-28.309 22.949-51.259 51.259-51.259h922.653c28.309 0 51.259 22.949 51.259 51.259v538.214c0 28.309-22.949 51.259-51.259 51.259zM177.838 247.814h-21.975c-13.523-1.11-25.356-1.69-35.496-1.69-1.137 12.414-5.072 31.561-11.833 57.471h18.594c7.87-1.135 13.523-1.69 16.903-1.69 14.631-1.135 21.393 6.763 20.284 23.665v59.161l-52.401-11.833-8.451 65.924 60.853 10.143v67.613h-50.711v57.471h50.711v70.994h64.233v-70.994h45.64v-57.471h-45.64v-57.473c16.903 3.381 33.226 6.761 49.020 10.143 0-23.665 0.553-43.949 1.69-60.853l-50.711-10.143v-94.659c1.11-34.915-15.793-53.51-50.71-55.78zM514.218 560.527h-64.234v-245.1c2.245-43.949-20.865-66.478-69.304-67.613h-69.304c-2.27 15.794-6.205 34.943-11.833 57.471 18.014-1.135 37.189-1.69 57.473-1.69 19.149-1.135 28.156 9.007 27.045 30.427v226.504h-98.039v60.852h228.197v-60.852zM930.934 327.259h-99.73v-82.826h-59.161v82.826h-86.208l3.381-5.070-37.189-45.64c-13.523 18.014-27.045 36.052-40.568 54.092-7.898-24.801-23.112-54.092-45.64-87.899-3.382 3.381-9.033 9.032-16.903 16.902-13.523 14.659-22.556 24.247-27.045 28.736 34.915 43.949 54.091 96.904 57.471 158.893l-35.496-6.763c-2.272 16.903-7.898 46.194-16.903 87.899-3.381 13.523-5.652 23.665-6.761 30.426l38.877 8.452c1.11-6.761 2.8-16.349 5.070-28.735 7.87-36.078 12.943-63.125 15.214-81.137l1.69 28.735c0 18.014 0.554 44.505 1.69 79.446v77.755h57.473c0-43.949-0.582-79.445-1.69-106.49 3.381 4.49 7.87 10.142 13.523 16.902 6.763 7.87 11.251 13.523 13.523 16.903l21.975-33.807v32.116h50.71c-4.516 11.251-14.659 29.845-30.426 55.78-2.272 3.382-3.963 6.181-5.070 8.452l54.091 15.212c2.245-4.516 6.181-11.277 11.832-20.283 13.523-21.421 21.975-36.078 25.356-43.949l-42.259-15.214h55.78c16.903 28.156 31.535 54.645 43.949 79.446l59.162-16.902c-2.272-2.272-5.072-6.207-8.452-11.833-14.659-22.554-25.356-39.459-32.116-50.71h49.020v-54.091h-87.899v-38.878h77.757v-54.091h-77.757v-40.568h99.73v-54.091z" />
<glyph unicode="&#xe902;" glyph-name="info" d="M512-64c-282.766 0-512 229.234-512 512s229.234 512 512 512c282.766 0 512-229.234 512-512s-229.234-512-512-512zM512 903.111c-251.364 0-455.111-203.748-455.111-455.111s203.748-455.111 455.111-455.111c251.364 0 455.111 203.748 455.111 455.111s-203.748 455.111-455.111 455.111zM526.222 163.556h-28.444c-23.552 0-42.667 19.115-42.667 42.667v284.444c0 23.552 19.115 42.667 42.667 42.667h28.444c23.552 0 42.667-19.115 42.667-42.667v-284.444c0-23.552-19.115-42.667-42.667-42.667zM512 618.667c-31.431 0-56.889 25.458-56.889 56.889s25.458 56.889 56.889 56.889c31.431 0 56.889-25.458 56.889-56.889s-25.458-56.889-56.889-56.889z" />
<glyph unicode="&#xe903;" glyph-name="pay" d="M512 960c-282.767 0-512-229.233-512-512s229.233-512 512-512c282.767 0 512 229.233 512 512s-229.233 512-512 512zM797.389 587.837l-318.587-318.587c0 0 0 0 0 0l-14.479-14.479c-12.001-12.001-31.457-12.001-43.459 0l-173.773 173.773c-12.001 12.001-12.001 31.457 0 43.459l14.479 14.479c12.001 12.001 31.457 12.001 43.438 0l137.585-137.585 296.878 296.878c11.981 12.001 31.437 12.001 43.438 0l14.479-14.479c12.001-12.001 12.001-31.457 0-43.459z" />
<glyph unicode="&#xe904;" glyph-name="unpay" d="M512-64c-282.767 0-512 229.233-512 512s229.233 512 512 512c282.767 0 512-229.233 512-512s-229.233-512-512-512zM682.086 404.316c6.001 0 10.916 2.171 14.746 6.554 3.809 4.362 5.734 9.544 5.734 15.565 0 5.448-1.925 10.24-5.734 14.336-3.83 4.096-8.745 6.144-14.746 6.144h-137.626l142.541 224.461c4.915 7.639 6.554 15.565 4.915 23.757s-6.021 14.746-13.107 19.661c-7.107 4.915-14.889 6.554-23.347 4.915-8.479-1.638-15.155-5.734-20.070-12.288l-119.603-191.693c-1.106-2.191-2.744-3.277-4.915-3.277-2.191 0-3.83 1.085-4.915 3.277l-119.603 191.693c-4.915 6.554-11.612 10.65-20.070 12.288-8.479 1.638-15.974 0-22.528-4.915-7.66-4.915-12.165-11.469-13.517-19.661-1.372-8.192 0.123-16.118 4.506-23.757l143.36-224.461h-138.445c-5.468 0-10.24-2.048-14.336-6.144s-6.144-8.888-6.144-14.336c0-6.021 2.048-11.203 6.144-15.565 4.096-4.383 8.868-6.554 14.336-6.554h141.353v-77.763h-141.353c-5.468 0-10.24-2.048-14.336-6.144s-6.144-9.155-6.144-15.155c0-6.021 2.048-11.059 6.144-15.155s8.868-6.144 14.336-6.144h141.353v-130.724c0-8.724 2.99-15.974 9.011-21.709 6.001-5.734 12.104-8.602 20.849-8.602 8.724 0 16.097 2.867 22.118 8.602 6.001 5.734 9.011 12.984 9.011 21.709v130.724h140.083c6.001 0 10.916 2.048 14.746 6.144 3.809 4.096 5.734 9.134 5.734 15.155 0 6.001-1.925 11.059-5.734 15.155-3.83 4.096-8.745 6.144-14.746 6.144h-140.083v77.763h140.083z" />
</font>
</defs>
</svg>
